<svg width="421" height="219" viewBox="0 0 421 219" fill="none" xmlns="http://www.w3.org/2000/svg">
<g opacity="0.9">
<g opacity="0.8">
<path d="M328.886 194.104C328.886 197.921 330.372 201.573 334.828 202.071V186.137C330.702 186.801 328.886 190.453 328.886 194.104Z" fill="white"/>
<path d="M0.298584 166.884V219H420.15V166.884H0.298584ZM254.454 171.698C254.454 173.357 255.609 175.349 257.59 175.349C259.9 175.349 260.891 173.357 260.891 171.532H264.851C264.851 174.685 262.706 178.834 257.425 178.834C252.309 178.834 250.163 174.519 250.163 171.532H254.454V171.698ZM27.3645 206.552H20.433V186.635H12.6763V206.552H5.74477V181.656H27.3645V206.552ZM49.1493 207.216C46.6737 207.216 44.1982 206.22 42.8779 204.062H42.7129V215.017C40.4024 215.349 38.0918 215.681 35.7813 216.013V187.465C35.7813 186.303 35.6163 183.814 35.4513 182.154L42.2177 181.324C42.3828 182.32 42.3828 183.814 42.3828 184.809H42.5478C43.538 182.818 45.8485 180.992 48.9842 180.992C55.5857 180.992 58.5563 186.137 58.5563 194.27C58.5563 201.739 55.9157 207.216 49.1493 207.216ZM77.0404 207.216C69.1186 207.216 65.3228 202.237 65.3228 194.104C65.3228 185.971 69.1186 180.992 77.0404 180.992C84.9621 180.992 88.7579 185.971 88.7579 194.104C88.5929 202.071 84.7971 207.216 77.0404 207.216ZM106.417 202.237C108.892 202.237 110.048 200.245 109.883 197.921L116.649 199.249C115.989 203.896 112.358 207.216 106.582 207.216C97.9999 207.216 95.5244 201.241 95.5244 193.938C95.5244 187.465 98.165 180.826 106.582 180.826C115.164 180.826 117.309 187.631 117.309 195.432H102.456C102.291 197.921 102.621 202.237 106.417 202.237ZM140.084 206.552L131.997 193.938V206.552H125.066V181.988L131.997 181.158V192.444H132.162L140.249 181.656H147.841L138.929 192.942L148.006 206.552H140.084ZM173.091 186.469H166.49V206.386H159.558V186.469H152.627V181.49H173.917L173.091 186.469ZM200.487 206.552H193.556V195.764H185.799V206.552H178.868V181.988L185.799 181.158V190.95H193.556V181.49H200.487V206.552ZM219.797 206.552H208.409V182.154C210.72 181.822 213.03 181.656 215.341 181.324V191.116H219.466C225.243 191.116 229.369 193.44 229.369 198.751C229.534 203.565 225.408 206.552 219.797 206.552ZM238.611 206.552H232.009V181.656H238.611V206.552ZM268.812 206.552H261.716V195.598C261.716 194.104 261.716 192.61 261.881 191.282C261.386 192.112 261.056 193.108 260.56 194.104L253.629 206.386H246.697V181.988L253.629 181.158C253.629 191.282 253.629 193.274 253.629 194.602L253.464 197.423C253.959 196.262 254.454 195.1 254.949 194.27C258.58 187.797 260.23 184.478 261.881 181.49H268.812V206.552ZM303.635 207.216C295.713 207.216 291.917 202.237 291.917 194.104C291.917 185.971 295.713 180.992 303.635 180.992C311.557 180.992 315.352 185.971 315.352 194.104C315.352 202.071 311.557 207.216 303.635 207.216ZM341.923 207.05V215.017L334.992 216.013V207.05C327.235 206.552 322.119 201.573 322.119 194.104C322.119 186.137 328.225 181.49 334.992 181.158V171.532L341.923 170.536V181.158C349.35 181.656 354.796 185.971 354.796 194.104C354.796 201.739 349.02 206.22 341.923 207.05ZM384.172 206.552H377.241V195.598C377.241 194.104 377.241 192.61 377.406 191.282C376.911 192.112 376.581 193.108 376.086 194.104L369.154 206.386H362.223V181.988L369.154 181.158C369.154 191.282 369.154 193.274 369.154 194.602L368.989 197.423C369.484 196.262 369.979 195.1 370.474 194.27C374.105 187.797 375.756 184.478 377.406 181.49H384.338L384.172 206.552ZM402.491 207.216C394.735 207.216 391.434 202.237 391.434 194.104C391.434 186.137 395.065 180.992 402.326 180.992C408.103 180.992 412.229 184.312 412.229 190.121L405.462 191.116C405.957 187.631 404.472 186.137 402.326 186.137C399.521 186.137 398.201 189.457 398.366 194.104C398.366 199.747 399.851 202.403 402.822 202.403C404.802 202.403 406.287 200.909 405.957 197.258L412.724 198.087C412.559 203.565 408.433 207.216 402.491 207.216Z" fill="white"/>
<path d="M303.634 185.804C300.333 185.804 299.013 188.958 299.013 193.937C299.013 199.082 300.333 202.07 303.634 202.07C306.934 202.07 308.255 199.082 308.255 193.937C308.255 188.958 307.099 185.804 303.634 185.804Z" fill="white"/>
<path d="M106.249 185.804C103.773 185.804 102.453 188.626 102.288 191.281H110.209C110.209 188.128 109.219 185.804 106.249 185.804Z" fill="white"/>
<path d="M219.301 195.597H215.505V201.738H219.301C221.281 201.738 222.932 200.908 222.932 198.751C222.767 196.593 221.116 195.597 219.301 195.597Z" fill="white"/>
<path d="M77.0412 185.804C73.7405 185.804 72.4202 188.958 72.4202 193.937C72.4202 199.082 73.7405 202.07 77.0412 202.07C80.3419 202.07 81.6622 199.082 81.6622 193.937C81.6622 188.958 80.5069 185.804 77.0412 185.804Z" fill="white"/>
<path d="M341.923 186.304V202.237C346.049 201.739 347.865 198.088 347.865 194.27C347.865 190.619 346.379 186.802 341.923 186.304Z" fill="white"/>
<path d="M47.1685 185.97C43.5377 185.97 42.7125 189.788 42.7125 193.937C42.7125 199.248 44.0328 202.07 47.3335 202.07C50.6343 202.07 51.6245 199.082 51.6245 193.937C51.6245 188.792 50.4692 185.97 47.1685 185.97Z" fill="white"/>
</g>
<path d="M282.29 155.44V126.648C282.29 123.32 282.457 120.324 282.623 117.328L282.29 117.162C281.292 119.991 279.96 122.82 278.629 125.982L269.808 145.787H259.156C257.326 141.793 255.495 137.799 249.503 124.152C248.505 121.988 247.506 119.492 246.84 117.328H246.508L246.84 128.479V155.607H233.692V92.0312H247.673C252 102.35 256.493 112.169 260.654 122.488C261.986 125.65 263.317 128.812 264.649 132.806H264.981C266.646 127.98 268.643 123.32 270.474 118.66L281.957 92.0312H295.438V155.607L282.29 155.44Z" fill="white"/>
<path d="M331.721 102.183V155.44H318.407V102.183H301.93V91.8647H349.529L346.7 102.183H331.721Z" fill="white"/>
<path d="M403.785 155.44V126.648C403.785 123.32 403.951 120.324 404.117 117.328L403.785 117.162C402.786 119.991 401.455 122.82 400.123 125.982L391.302 145.787H380.651C378.82 141.793 376.989 137.799 370.998 124.152C369.999 121.988 369.001 119.492 368.335 117.328H368.002L368.335 128.479V155.607H355.187V92.0312H369.167C373.494 102.35 377.988 112.169 382.149 122.488C383.48 125.65 384.811 128.812 386.143 132.806H386.476C388.14 127.98 390.137 123.32 391.968 118.66L403.452 92.0312H416.933V155.607L403.785 155.44Z" fill="white"/>
<path opacity="0.5" d="M153.473 149.947H7.34678C5.34961 149.947 3.6853 148.283 3.6853 146.285C3.6853 144.288 5.34961 142.624 7.34678 142.624H153.473C155.47 142.624 157.134 144.288 157.134 146.285C157.134 148.283 155.47 149.947 153.473 149.947Z" fill="white"/>
<path opacity="0.5" d="M220.712 106.011H74.5857C72.5885 106.011 70.9242 104.347 70.9242 102.349C70.9242 100.352 72.5885 98.688 74.5857 98.688H220.712C222.709 98.688 224.373 100.352 224.373 102.349C224.373 104.347 222.709 106.011 220.712 106.011Z" fill="white"/>
<path opacity="0.5" d="M187.176 127.48H41.0493C39.0521 127.48 37.3878 125.816 37.3878 123.819C37.3878 121.821 39.0521 120.157 41.0493 120.157H187.176C189.173 120.157 190.837 121.821 190.837 123.819C190.837 125.816 189.173 127.48 187.176 127.48Z" fill="white"/>
<path d="M35.3211 101.987C34.8218 101.987 34.3059 101.87 33.8399 101.637C32.1922 100.822 31.5265 98.8081 32.3587 97.1771C43.7592 74.3765 89.5776 0 199.988 0C298.232 0 353.42 68.4517 353.969 69.1507C355.101 70.5986 354.868 72.679 353.42 73.8273C351.972 74.959 349.892 74.726 348.744 73.2781C348.211 72.6124 294.92 6.65711 199.988 6.65711C93.3888 6.65711 49.2847 78.221 38.3002 100.156C37.7177 101.321 36.5361 101.987 35.3211 101.987Z" fill="white"/>
</g>
</svg>
